<?xml version="1.0" encoding="utf-8"?>
<!-- Generator: Adobe Illustrator 24.3.0, SVG Export Plug-In . SVG Version: 6.00 Build 0)  -->
<svg version="1.1" xmlns="http://www.w3.org/2000/svg" xmlns:xlink="http://www.w3.org/1999/xlink" x="0px" y="0px"
	 viewBox="0 0 683.6 510.8" style="enable-background:new 0 0 683.6 510.8;" xml:space="preserve">
<style type="text/css">
	.st0{fill:url(#path3655_1_);}
	.st1{fill:#2E5C91;}
	.st2{fill:url(#path3596_1_);}
	.st3{fill:#699DD3;}
	.st4{fill:url(#path3596-1_1_);}
	.st5{fill:url(#path3596-1-7_1_);}
	.st6{fill:url(#path3645_1_);stroke:url(#path3645_2_);stroke-width:17.7691;stroke-miterlimit:15.1181;}
	.st7{fill:#FFFFFF;}
	.st8{fill:url(#SVGID_1_);}
	.st9{fill:url(#SVGID_2_);}
	.st10{fill:url(#SVGID_3_);}
</style>
<g id="svg804" xmlns:inkscape="http://www.inkscape.org/namespaces/inkscape" xmlns:sodipodi="http://sodipodi.sourceforge.net/DTD/sodipodi-0.dtd" xmlns:svg="http://www.w3.org/2000/svg">
	<defs>
		<inkscape:path-effect  effect="spiro" id="path-effect208" is_visible="true" lpeversion="1"></inkscape:path-effect>
	</defs>
	<g id="layer1" inkscape:groupmode="layer" inkscape:label="л €мќґм–ґ 1">
		
			<linearGradient id="path3655_1_" gradientUnits="userSpaceOnUse" x1="-232.1447" y1="584.2965" x2="-173.4548" y2="590.6605" gradientTransform="matrix(2.2781 0 0 -2.2781 868.6772 1500.3619)">
			<stop  offset="0" style="stop-color:#B2CDE9"/>
			<stop  offset="1" style="stop-color:#C4DBEE"/>
		</linearGradient>
		<path id="path3655" sodipodi:nodetypes="cssscc" class="st0" d="M491.4,154.8c0,35.7-45.1,79.6-104.4,79.6
			c-59.4,0-136.5-36.6-136.5-72.3s48.1-64.7,107.5-64.7c45.3,0,105.6,41.7,128.6,46.4C488.3,147.7,489.6,150.4,491.4,154.8
			L491.4,154.8z"/>
		<path id="path3655-4-8" sodipodi:nodetypes="cssscc" class="st1" d="M50.9,104.4c28.2-21.9,80.5-2.8,116.8,44
			c36.4,46.9,40.3,116.3,12.1,138.2c-28.2,21.9-77.9-12.1-114.2-58.9c-27.8-35.8-9.2-93.8-19.6-114.9
			C47.4,110.3,49.1,107.2,50.9,104.4z"/>
		
			<radialGradient id="path3596_1_" cx="-610.4352" cy="1108.3328" r="95.6271" gradientTransform="matrix(-1.723415e-02 1.2701 2.3498 3.185450e-02 -2365.1277 772.7227)" gradientUnits="userSpaceOnUse">
			<stop  offset="0" style="stop-color:#658DB6"/>
			<stop  offset="0.7678" style="stop-color:#527FAB"/>
			<stop  offset="1" style="stop-color:#4071A0"/>
		</radialGradient>
		<path id="path3596" sodipodi:nodetypes="ccccsc" class="st2" d="M486.5,143.8c-16-0.1-139.1,0.7-245.3,0.1
			c-39.6,11.6-72.2,30.2-89.3,66.4C139.8,200,59.1,114.2,50.8,104.5C122.3,9.7,220.6,0.7,239.7,0.7S400.6-18.9,486.5,143.8
			L486.5,143.8z"/>
		<path id="path3655-4" sodipodi:nodetypes="cssscc" class="st3" d="M229.3,509.9c-28.5-21.5-33.2-84.2,2.6-131.5
			s93.5-79.6,122-58.1c28.5,21.5,17,88.8-18.8,136.1c-27.4,36.2-80.9,38.5-98.5,54C233.7,510.3,232.1,510.3,229.3,509.9L229.3,509.9
			z"/>
		
			<radialGradient id="path3596-1_1_" cx="-667.5225" cy="724.8864" r="60.4814" gradientTransform="matrix(1.852 3.8723 4.9023 -2.3445 -2055.0981 4528.5024)" gradientUnits="userSpaceOnUse">
			<stop  offset="0" style="stop-color:#D0E2F1"/>
			<stop  offset="0.8558" style="stop-color:#CADEF0"/>
			<stop  offset="1" style="stop-color:#95BEE3"/>
		</radialGradient>
		<path id="path3596-1" sodipodi:nodetypes="ccccsc" class="st4" d="M236.5,510.4c8.2-13.7,65.7-120.5,120-211.7
			c10-40,12.2-76.6-10.4-109.7c15.1-5.2,132.7-31.8,145.2-34.1c45.5,109.8,3.3,199-6.4,215.4C475.3,386.7,420.3,518.9,236.5,510.4z"
			/>
		
			<radialGradient id="path3596-1-7_1_" cx="-1331.5881" cy="638.5309" r="59.402" gradientTransform="matrix(-2.93 -0.1958 -0.2609 3.9039 -3560.9021 -2505.5515)" gradientUnits="userSpaceOnUse">
			<stop  offset="0" style="stop-color:#96D0E1"/>
			<stop  offset="0.6782" style="stop-color:#89B7E1"/>
			<stop  offset="1" style="stop-color:#699DD3"/>
		</radialGradient>
		<path id="path3596-1-7" sodipodi:nodetypes="ccccsc" class="st5" d="M46,112.7c7.9,13.9,70,120.2,122.5,212.5
			c29.8,28.5,63.1,44.4,103,41.1c-2.9,15.7-37.9,131.6-42.1,143.6C111.5,495.3,54.8,414.5,45.2,398C35.7,381.4-52.1,268.3,46,112.7z
			"/>
		
			<linearGradient id="path3645_1_" gradientUnits="userSpaceOnUse" x1="-701.4467" y1="486.2012" x2="-701.1927" y2="584.0329" gradientTransform="matrix(1.7609 0 0 -1.7682 1490.3667 1198.9795)">
			<stop  offset="0" style="stop-color:#3B79BC"/>
			<stop  offset="1" style="stop-color:#94B8E0"/>
		</linearGradient>
		
			<linearGradient id="path3645_2_" gradientUnits="userSpaceOnUse" x1="-701.6457" y1="598.0287" x2="-700.9988" y2="469.7424" gradientTransform="matrix(1.7609 0 0 -1.7682 1490.3667 1198.9795)">
			<stop  offset="0" style="stop-color:#D7DEF0"/>
			<stop  offset="0.5" style="stop-color:#FFFFFF"/>
			<stop  offset="1" style="stop-color:#D5DEF0"/>
		</linearGradient>
		<path id="path3645" class="st6" d="M359.5,254.8c0,57.7-46.6,104.5-104.1,104.5s-104.1-46.8-104.1-104.5s46.6-104.5,104.1-104.5
			S359.5,197.1,359.5,254.8z"/>
		<path id="rect3782" sodipodi:nodetypes="ccc" class="st7" d="M335,202.2c42.2,39,36.5,67.3,22.9,100.2
			C350.9,251.7,352.6,228.5,335,202.2z"/>
		<path id="rect3782-4" sodipodi:nodetypes="ccc" class="st7" d="M193.5,349.7c-51.6-33-67.9-104.2-20.1-143.5
			C148.7,251.2,159.2,280,193.5,349.7z"/>
	</g>
	<circle class="st7" cx="329.6" cy="247.8" r="200.8"/>
</g>
<g id="Слой_2">
	<radialGradient id="SVGID_1_" cx="205.2932" cy="243.708" r="154.7497" gradientUnits="userSpaceOnUse">
		<stop  offset="0" style="stop-color:#648CB5"/>
		<stop  offset="1" style="stop-color:#4273A1"/>
	</radialGradient>
	<path class="st8" d="M343.9,354.8c-1.3-13.4-2.6-26.9-3.8-40.3c-38.9,14.6-79.9,6.2-102-20.1c-18.9-22.5-17.6-50.6-17.3-56.1
		c0.3-5.9,2.7-45.3,31.2-61.7c13.2-7.6,34.7-8.3,46.1-8.1c6,0.1,13.2,0.2,22,2.6c0,0,2.1,0.6,16.5,5.5l6.8-48
		c-19-5-59.5-12.9-102,2.6c-11.5,4.2-28.7,10.7-44.2,27.2c-14,15-20.5,31.8-22.5,37.8c-2.6,8-6,23.5-7.1,29.8c0,0,0,0,0,0
		c-0.9,6.5-9.1,69.2,31.7,106.6c19.9,18.2,45.7,25.2,49.9,26.2c18.3,4.8,33.5,4.2,46.2,3.7C315.7,361.8,332.3,358.1,343.9,354.8z"/>
	<radialGradient id="SVGID_2_" cx="405.327" cy="244.1286" r="133.3218" gradientUnits="userSpaceOnUse">
		<stop  offset="0" style="stop-color:#648CB5"/>
		<stop  offset="1" style="stop-color:#4273A1"/>
	</radialGradient>
	<path class="st9" d="M515.9,356.4H374.3V129.7h141.6v40.9c-31.7,0-63.5,0-95.2,0c0.1,16.1,0.1,32.2,0.2,48.3c29.7,0,59.5,0,89.2,0
		v42c-29.6,0-59.1,0-88.7,0c0,18.5,0,37.1,0,55.6c31.5,0,63,0,94.5,0V356.4z"/>
	<radialGradient id="SVGID_3_" cx="580.0997" cy="242.8295" r="126.8942" gradientUnits="userSpaceOnUse">
		<stop  offset="0" style="stop-color:#648CB5"/>
		<stop  offset="1" style="stop-color:#4273A1"/>
	</radialGradient>
	<polygon class="st10" points="552.6,356.4 601.9,356.4 601.9,265.1 678,265.1 678,224.6 603,224.6 603,170.6 675.4,170.6 
		658.6,127 552.6,127 	"/>
</g>
</svg>
