<svg xmlns="http://www.w3.org/2000/svg" width="64" height="64" fill="none" viewBox="0 0 64 64">
  <defs>
    <linearGradient id="a" x1="59.9384" x2="1.34273" y1="59.6756" y2="1.07937" gradientUnits="userSpaceOnUse">
      <stop offset=".29" stop-color="#6B57FF"/>
      <stop offset=".89" stop-color="#07C3F2"/>
    </linearGradient>
    <linearGradient id="b" x1="7.67649" x2="61.1315" y1="64.3925" y2="39.6094" gradientUnits="userSpaceOnUse">
      <stop offset=".3" stop-color="#FF45ED"/>
      <stop offset=".84" stop-color="#6B57FF"/>
    </linearGradient>
  </defs>
  <path fill="url(#a)" d="M.00586 4.125v34.1275c0 1.6581.993124 3.155 2.52062 3.8L39.9477 57.85c.5182.2187 1.0757.3294 1.6382.3244l18.3287-.15c2.265-.0188 4.0913-1.86 4.0913-4.125V36.2337c0-.8056-.2357-1.5931-.6782-2.2662L42.219 1.85938C41.4559.69875 40.1609 0 38.7721 0H4.13086c-2.27813 0-4.125 1.84687-4.125 4.125Z"/>
  <path fill="url(#b)" d="M6.00586 49.015v10.8619c0 2.2781 1.84687 4.125 4.12504 4.125h12.5656c.2 0 .4-.0144.5981-.0438l37.185-5.4481c2.0256-.2969 3.5269-2.0344 3.5269-4.0812V39.0312c0-2.2787-1.8475-4.1256-4.1263-4.1249l-18.5043.0043c-.4257 0-.8488.0663-1.2538.1957L8.87648 45.085c-1.70937.5463-2.87 2.135-2.87 3.9294l-.00062.0006Z"/>
  <path fill="#FF45ED" d="M6.00586 47.55v12.2588c0 2.3037 1.88687 4.1612 4.19064 4.1243L21.0052 64c1.1813-.0188 2.5319-.7862 3.3007-1.6831l32.7068-38.1581c.6407-.7475.9932-1.7001.9932-2.6844V10.125c0-2.27813-1.8469-4.125-4.125-4.125H42.8777c-1.1893 0-2.3212.51375-3.1043 1.40875L7.02648 44.8338c-.65812.7518-1.02062 1.7168-1.02062 2.7162Z"/>
  <path fill="#000" d="M52.0059 12h-40v40h40V12Z"/>
  <path fill="#fff" fill-rule="evenodd" d="M17.0127 16.9922h5.7131c1.4219 0 2.6956.3212 3.8213.9644 1.1256.6431 2.0062 1.5343 2.6418 2.6743.6363 1.14.9538 2.4275.9538 3.8644 0 1.4369-.3181 2.7244-.9538 3.8644-.6362 1.14-1.5168 2.0312-2.6418 2.6744-1.1257.6431-2.3994.9643-3.8213.9643h-5.7131V16.9922Zm8.0281 11.8762c.6719-.4 1.19-.9737 1.5544-1.7206.3644-.7469.5469-1.6306.5469-2.6531 0-1.0225-.1825-1.9063-.5469-2.6531-.3644-.7469-.8825-1.32-1.5544-1.7207-.6719-.4-1.4544-.6-2.3475-.6h-2.755v9.9469h2.755c.8931 0 1.6756-.1994 2.3475-.5994Z" clip-rule="evenodd"/>
  <path fill="#fff" d="M33 43.9984H17v3h16v-3Z"/>
  <path fill="#fff" fill-rule="evenodd" d="M39.1464 16.9922h-6.4418l-.0007 15.0069h2.9263v-5.67h3.43c1.0794 0 2.0225-.195 2.83-.5844.8075-.39 1.4312-.9381 1.8706-1.6456.4394-.7075.6594-1.5438.6594-2.4657 0-.9218-.2163-1.7325-.6488-2.4331-.4325-.7006-1.0468-1.2437-1.8437-1.6294-.7969-.3856-1.7238-.5787-2.7813-.5787Zm1.9507 5.8475c-.2.3394-.4838.6-.8519.7825-.3681.1819-.7988.2737-1.2919.2737h-3.3231v-4.47h3.3231c.4931 0 .9238.0907 1.2919.2732.3675.1825.6519.4393.8519.7718.2.3325.3.7163.3 1.1738 0 .4575-.1.8556-.3 1.195Z" clip-rule="evenodd"/>
</svg>
