<?xml version="1.0" encoding="UTF-8"?>
<svg xmlns="http://www.w3.org/2000/svg" xmlns:xlink="http://www.w3.org/1999/xlink" viewBox="0 0 206 182" class="c-HFyvR"><defs><linearGradient id="face" y1="0" x1="0" x2="100%" y2="0"><stop stop-color="#d7d7d7" offset="0"></stop><stop stop-color="#e7e7e7" offset=".5"></stop><stop stop-color="#d7d7d7" offset="1"></stop></linearGradient><linearGradient id="bevel" x1="0" y1="0" x2="0" y2="100%"><stop stop-color="#d8d8d8" offset="0"></stop><stop stop-color="#a3a3a3" offset="1"></stop></linearGradient><symbol id="btn-key" viewBox="0 0 60 60"><rect x="0" y="0" rx="3" ry="3" width="54" height="58" fill="url(#bevel)"></rect><rect x="2" y="1" rx="3" ry="3" width="50" height="50" stroke-width="0.25" stroke="#fff" fill="url(#face)"></rect></symbol></defs><use xlink:href="#btn-key" x="0" y="0" width="60" height="60"></use><use xlink:href="#btn-key" x="60" y="0" width="60" height="60"></use><use xlink:href="#btn-key" x="120" y="0" width="60" height="60"></use><rect fill="#3c3cff" opacity="0.25" x="120" y="0" rx="3" ry="3" width="54" height="58" stroke="none"></rect><use xlink:href="#btn-key" x="22" y="62" width="60" height="60"></use><use xlink:href="#btn-key" x="82" y="62" width="60" height="60"></use><rect fill="#3c3c3c" opacity="0.35" x="82" y="62" rx="3" ry="3" width="54" height="58" stroke="none"></rect><use xlink:href="#btn-key" x="142" y="62" width="60" height="60"></use><use xlink:href="#btn-key" x="32" y="124" width="60" height="60"></use><rect fill="#3c3c3c" opacity="0.35" x="32" y="124" rx="3" ry="3" width="54" height="58" stroke="none"></rect><use xlink:href="#btn-key" x="92" y="124" width="60" height="60"></use><rect fill="#3c3c3c" opacity="0.35" x="92" y="124" rx="3" ry="3" width="54" height="58" stroke="none"></rect><use xlink:href="#btn-key" x="152" y="124" width="60" height="60"></use><rect fill="#3c3c3c" opacity="0.35" x="152" y="124" rx="3" ry="3" width="54" height="58" stroke="none"></rect><text x="130" y="43" style="font: 900 18px sans-serif;">3</text></svg>