<?xml version="1.0" encoding="utf-8"?>
<svg viewBox="0.0001 0.4129 22.0812 27.0903" xmlns="http://www.w3.org/2000/svg">
  <path fill-rule="evenodd" clip-rule="evenodd" d="M 0.21 19.007 C -0.066 18.573 -0.07 18.019 0.199 17.58 L 10.328 1.057 C 10.892 0.138 12.252 0.218 12.703 1.197 L 21.957 21.271 C 22.3 22.015 21.905 22.892 21.119 23.127 L 6.725 27.446 C 6.146 27.62 5.522 27.387 5.198 26.876 L 0.21 19.007 Z M 11.497 5.888 C 11.595 5.402 12.261 5.332 12.457 5.787 L 18.84 20.557 C 18.96 20.835 18.811 21.156 18.521 21.243 L 8.575 24.211 C 8.209 24.321 7.859 24.001 7.934 23.627 L 11.497 5.888 Z" style="fill: rgb(13, 50, 70);"/>
</svg>