<?xml version="1.0" encoding="utf-8"?>
<svg xmlns="http://www.w3.org/2000/svg" viewBox="0 0 256 256" width="256px" height="256px"><defs><style type="text/css">
	.st0{fill:#497C9B;}
	.st1{fill:#E8FEFF;}
	.st2{fill:#77B3B2;}
	.st3{fill:#73A9AE;}
	.st4{fill:#F0F9FE;}
</style></defs><g transform="matrix(0.9999999999999999, 0, 0, 0.9999999999999999, -99.99999999999999, -42)" id="object-0"><circle class="st0" cx="228" cy="170" r="128"/><path class="st1" d="M278.21,112.86l14.61,14.61c4.87,4.87,4.87,11.83,0,16.7l-38.96,39.65c-1.24,1.27-1.32,3.25-0.23,4.61 l7.98,9.05l1.11-1.1c4.17-4.17,11.13-4.17,15.3,0l32.7,32c4.17,4.87,4.17,11.83,0,16l-5.57,5.57c-2.09,2.09-4.87,2.78-7.65,2.78 s-5.57-0.69-7.65-2.78l-32.7-32.7c-3.67-3.67-4.11-9.48-1.34-13.67l-8.22-9.32c-4.6-4.61-4.6-12.08,0-16.69l38.96-38.96 c1.39-1.39,1.39-4.17,0-4.87l-13.91-14.61c-1.35-1.33-3.52-1.33-4.87,0l-6.26-6.26C266.13,108.26,273.59,108.26,278.21,112.86z M270.95,199.85l-0.58,0c-0.7,0-2.09,0-2.78,1.39l-5.57,4.87c-1.39,2.09-1.39,4.87,0,6.26l32.7,32.7c1.66,1.88,4.6,1.88,6.26,0 l4.87-5.57c2.09-1.39,2.09-4.17,0-6.26l-32-32C272.66,200.05,271.98,199.88,270.95,199.85L270.95,199.85z"/><path class="st2" d="M256.57,114.45l9,8.95c2.78,2.78,2.78,7.65,0,11.13l-70.26,70.26c-2.78,2.78-7.65,2.78-10.43,0l-9.7-9.64 c-2.78-2.78-2.78-7.65,0-10.43l70.26-70.26C248.91,110.97,253.78,110.97,256.57,114.45z"/><polygon class="st2" points="207.28,95.54 219.8,83.02 232.33,95.54 219.8,108.07 &#9;"/><polygon class="st2" points="144.67,157.46 157.2,144.94 169.72,157.46 157.2,169.98 &#9;"/><polygon class="st2" points="169.02,132.41 181.54,119.89 194.06,132.41 181.54,144.94 &#9;"/><polygon class="st3" points="194.06,132.41 206.59,119.89 219.11,132.41 206.59,144.94 &#9;"/><polygon class="st3" points="169.72,157.46 182.24,144.94 194.76,157.46 182.24,169.98 &#9;"/><polygon class="st4" points="181.54,144.94 194.06,132.41 206.59,144.94 194.06,157.46 &#9;"/><polygon class="st4" points="219.11,107.37 231.63,94.85 244.15,107.37 231.63,119.89 &#9;"/><polygon class="st4" points="157.2,169.98 169.72,157.46 182.24,169.98 169.72,182.5 &#9;"/><polygon class="st2" points="194.06,107.37 206.59,94.85 219.11,107.37 206.59,119.89 &#9;"/><polygon class="st2" points="156.5,119.89 169.02,108.07 181.54,119.89 169.02,132.41 &#9;"/><polygon class="st2" points="194.76,83.02 207.28,70.5 219.8,83.02 207.28,95.54 &#9;"/><polygon class="st2" points="119.63,132.41 132.15,119.89 144.67,132.41 132.15,144.94 &#9;"/><polygon class="st2" points="157.2,95.54 169.72,83.02 182.24,95.54 169.72,108.07 &#9;"/></g></svg>