<?xml version="1.0" encoding="utf-8"?>
<svg xmlns="http://www.w3.org/2000/svg" viewBox="7.125 7.125 62.8025 62.7532" width="62.8025px" height="62.7532px">
  <defs>
    <linearGradient id="paint0_linear_2028_278" x1="41.443" y1="11.5372" x2="10.5567" y2="42.4236" gradientUnits="userSpaceOnUse">
      <stop stop-color="#0096FF"/>
      <stop offset="1" stop-color="#FF1E56"/>
    </linearGradient>
  </defs>
  <path d="M38.5017 18.0956C27.2499 18.0956 18.0957 27.2498 18.0957 38.5016C18.0957 49.7534 27.2499 58.9076 38.5017 58.9076C49.7535 58.9076 58.9077 49.7534 58.9077 38.5016C58.9077 27.2498 49.7535 18.0956 38.5017 18.0956ZM38.5017 49.0618C32.6687 49.0618 27.9415 44.3346 27.9415 38.5016C27.9415 32.6686 32.6687 27.9414 38.5017 27.9414C44.3347 27.9414 49.0619 32.6686 49.0619 38.5016C49.0619 44.3346 44.3347 49.0618 38.5017 49.0618Z" fill="black" transform="matrix(1, 0, 0, 1, 1.7763568394002505e-15, 0)"/>
  <path fill-rule="evenodd" clip-rule="evenodd" d="M40.2115 14.744V7.125C56.7719 8.0104 69.9275 21.7208 69.9275 38.5016C69.9275 55.2824 56.7719 68.989 40.2115 69.8782V62.2592C52.5539 61.3776 62.3275 51.0644 62.3275 38.5016C62.3275 25.9388 52.5539 15.6256 40.2115 14.744ZM20.5048 54.0815C17.233 50.3043 15.124 45.4935 14.7478 40.2115H7.125C7.5202 47.6025 10.4766 54.3095 15.1088 59.4737L20.501 54.0815H20.5048ZM36.7916 69.8782V62.2592C31.5058 61.883 26.695 59.7778 22.9178 56.5022L17.5256 61.8944C22.6936 66.5304 29.4006 69.483 36.7878 69.8782H36.7916Z" fill="url(#paint0_linear_2028_278)" transform="matrix(1, 0, 0, 1, 1.7763568394002505e-15, 0)"/>
</svg>